<svg width="1313" height="350" viewBox="0 -20 1313 350" fill="none" xmlns="http://www.w3.org/2000/svg">
<path d="M136.173 309.311C76.9733 302.911 27.0733 262.511 8.2733 205.811C-1.0267 178.011 -2.4267 150.011 3.7733 121.211C17.5733 57.6115 68.3733 9.81146 131.573 0.811456C143.473 -0.888544 169.573 0.211462 181.173 2.91146C210.773 9.61146 232.473 21.7115 254.273 43.4115C280.373 69.5115 295.473 101.111 299.573 139.111C303.673 175.711 293.573 215.011 272.373 245.711C260.373 263.111 238.073 283.111 218.673 293.811C210.673 298.211 189.273 305.111 175.673 307.511C167.173 309.011 143.673 310.111 136.173 309.311ZM171.673 229.911C187.573 213.511 193.573 207.911 195.273 207.911H197.673V229.911V251.911H220.673H243.673V227.911V203.911H220.673C200.773 203.911 197.673 203.711 198.373 202.411C198.873 201.611 209.173 190.411 221.473 177.511L243.673 154.011V130.511V107.011L223.573 106.711L203.473 106.411L200.573 103.111L197.673 99.9115V81.6115C197.673 71.6115 197.373 62.4115 197.073 61.1115L196.373 58.8115L145.773 59.1115C95.7733 59.5115 95.0733 59.5115 89.7733 61.8115C73.0733 68.7115 63.0733 80.2115 57.9733 97.9115C56.3733 103.811 56.1733 108.911 56.1733 154.911C56.1733 200.111 56.3733 206.111 57.9733 211.911C62.1733 227.311 70.9733 239.111 83.2733 245.611C93.7733 251.211 97.5733 251.811 125.373 251.811L150.473 251.911L171.673 229.911ZM110.773 202.111C108.873 201.211 106.373 199.111 105.273 197.611C103.273 194.911 103.173 193.411 102.873 157.811C102.673 134.911 102.973 119.411 103.573 117.111C104.173 115.011 106.073 112.011 107.673 110.411L110.773 107.411L149.173 107.111C191.773 106.811 191.973 106.811 195.373 113.211C196.973 116.111 197.173 120.011 197.173 155.411V194.411L194.773 197.811C190.473 203.811 189.473 203.911 149.973 203.911C117.873 203.911 113.773 203.711 110.773 202.111Z" fill="#2B724A" fill-rule="evenodd"/>
<path d="M383.246 226L436.371 85.082H446.234V101.293H442.816L397.309 226H383.246ZM406.391 182.738L410.785 171.312H475.043L479.438 182.738H406.391ZM488.52 226L443.109 101.293V85.082H449.555L502.484 226H488.52ZM547.699 227.758C540.212 227.758 533.799 226.228 528.461 223.168C523.122 220.108 519.021 215.714 516.156 209.984C513.292 204.255 511.859 197.419 511.859 189.477V124.438H524.75V187.328C524.75 196.768 527.029 203.962 531.586 208.91C536.208 213.858 542.816 216.332 551.41 216.332C555.902 216.332 559.939 215.583 563.52 214.086C567.1 212.523 570.193 210.342 572.797 207.543C575.466 204.743 577.484 201.423 578.852 197.582C580.284 193.676 581 189.346 581 184.594V124.438H593.793V226H581V208.617H580.609C578.917 212.263 576.54 215.551 573.48 218.48C570.421 221.345 566.71 223.624 562.348 225.316C558.051 226.944 553.168 227.758 547.699 227.758ZM646.43 227.855C638.096 227.855 631.846 225.805 627.68 221.703C623.578 217.536 621.527 211.026 621.527 202.172V135.277H606.586V124.438H621.527V96.9961H634.809V124.438H654.828V135.277H634.809V201.977C634.809 207.576 635.98 211.482 638.324 213.695C640.733 215.909 644.314 217.016 649.066 217.016C650.173 217.016 651.215 216.983 652.191 216.918C653.233 216.788 654.112 216.69 654.828 216.625V227.074C653.852 227.27 652.582 227.432 651.02 227.562C649.522 227.758 647.992 227.855 646.43 227.855ZM710.688 227.855C701.508 227.79 693.435 225.642 686.469 221.41C679.503 217.113 674.066 211.026 670.16 203.148C666.319 195.271 664.398 185.961 664.398 175.219V175.023C664.398 164.281 666.319 155.004 670.16 147.191C674.066 139.314 679.503 133.259 686.469 129.027C693.435 124.73 701.475 122.582 710.59 122.582C719.835 122.582 727.908 124.73 734.809 129.027C741.775 133.259 747.211 139.281 751.117 147.094C755.023 154.906 756.977 164.216 756.977 175.023V175.219C756.977 186.026 755.023 195.368 751.117 203.246C747.211 211.059 741.807 217.113 734.906 221.41C728.005 225.707 719.932 227.855 710.688 227.855ZM710.785 216.332C717.426 216.332 723.22 214.704 728.168 211.449C733.116 208.194 736.957 203.474 739.691 197.289C742.426 191.104 743.793 183.747 743.793 175.219V175.023C743.793 166.43 742.426 159.073 739.691 152.953C736.957 146.833 733.083 142.178 728.07 138.988C723.122 135.733 717.296 134.105 710.59 134.105C704.014 134.105 698.253 135.733 693.305 138.988C688.357 142.243 684.483 146.931 681.684 153.051C678.949 159.171 677.582 166.495 677.582 175.023V175.219C677.582 183.747 678.949 191.104 681.684 197.289C684.483 203.474 688.357 208.194 693.305 211.449C698.253 214.704 704.079 216.332 710.785 216.332ZM774.164 226V124.438H787.055V142.699H787.348C789.171 136.449 792.23 131.534 796.527 127.953C800.889 124.372 806.163 122.582 812.348 122.582C814.04 122.582 815.603 122.712 817.035 122.973C818.467 123.233 819.574 123.493 820.355 123.754V136.352C819.509 135.961 818.24 135.635 816.547 135.375C814.854 135.049 812.868 134.887 810.59 134.887C805.837 134.887 801.671 136.059 798.09 138.402C794.574 140.681 791.84 143.936 789.887 148.168C787.999 152.4 787.055 157.38 787.055 163.109V226H774.164ZM836.371 226V85.082H920.16V97.0938H849.652V150.121H914.496V161.938H849.652V226H836.371ZM938.715 226V85.082H951.605V226H938.715ZM1015.96 227.855C1006.78 227.79 998.708 225.642 991.742 221.41C984.776 217.113 979.34 211.026 975.434 203.148C971.592 195.271 969.672 185.961 969.672 175.219V175.023C969.672 164.281 971.592 155.004 975.434 147.191C979.34 139.314 984.776 133.259 991.742 129.027C998.708 124.73 1006.75 122.582 1015.86 122.582C1025.11 122.582 1033.18 124.73 1040.08 129.027C1047.05 133.259 1052.48 139.281 1056.39 147.094C1060.3 154.906 1062.25 164.216 1062.25 175.023V175.219C1062.25 186.026 1060.3 195.368 1056.39 203.246C1052.48 211.059 1047.08 217.113 1040.18 221.41C1033.28 225.707 1025.21 227.855 1015.96 227.855ZM1016.06 216.332C1022.7 216.332 1028.49 214.704 1033.44 211.449C1038.39 208.194 1042.23 203.474 1044.96 197.289C1047.7 191.104 1049.07 183.747 1049.07 175.219V175.023C1049.07 166.43 1047.7 159.073 1044.96 152.953C1042.23 146.833 1038.36 142.178 1033.34 138.988C1028.4 135.733 1022.57 134.105 1015.86 134.105C1009.29 134.105 1003.53 135.733 998.578 138.988C993.63 142.243 989.757 146.931 986.957 153.051C984.223 159.171 982.855 166.495 982.855 175.023V175.219C982.855 183.747 984.223 191.104 986.957 197.289C989.757 203.474 993.63 208.194 998.578 211.449C1003.53 214.704 1009.35 216.332 1016.06 216.332ZM1120.65 227.855C1111.47 227.79 1103.4 225.642 1096.43 221.41C1089.46 217.113 1084.03 211.026 1080.12 203.148C1076.28 195.271 1074.36 185.961 1074.36 175.219V175.023C1074.36 164.281 1076.28 155.004 1080.12 147.191C1084.03 139.314 1089.46 133.259 1096.43 129.027C1103.4 124.73 1111.44 122.582 1120.55 122.582C1129.8 122.582 1137.87 124.73 1144.77 129.027C1151.74 133.259 1157.17 139.281 1161.08 147.094C1164.98 154.906 1166.94 164.216 1166.94 175.023V175.219C1166.94 186.026 1164.98 195.368 1161.08 203.246C1157.17 211.059 1151.77 217.113 1144.87 221.41C1137.97 225.707 1129.89 227.855 1120.65 227.855ZM1120.75 216.332C1127.39 216.332 1133.18 214.704 1138.13 211.449C1143.08 208.194 1146.92 203.474 1149.65 197.289C1152.39 191.104 1153.75 183.747 1153.75 175.219V175.023C1153.75 166.43 1152.39 159.073 1149.65 152.953C1146.92 146.833 1143.04 142.178 1138.03 138.988C1133.08 135.733 1127.26 134.105 1120.55 134.105C1113.98 134.105 1108.21 135.733 1103.27 138.988C1098.32 142.243 1094.44 146.931 1091.64 153.051C1088.91 159.171 1087.54 166.495 1087.54 175.023V175.219C1087.54 183.747 1088.91 191.104 1091.64 197.289C1094.44 203.474 1098.32 208.194 1103.27 211.449C1108.21 214.704 1114.04 216.332 1120.75 216.332ZM1203.75 226L1174.85 124.438H1187.84L1210.69 211.645H1210.98L1236.27 124.438H1249.26L1274.55 211.645H1274.95L1297.7 124.438H1310.69L1281.78 226H1268.21L1242.91 141.625H1242.62L1217.43 226H1203.75Z" fill="#000000"/>
</svg>